<mxfile host="app.diagrams.net" agent="Mozilla/5.0 (Windows NT 10.0; Win64; x64) AppleWebKit/537.36 (KHTML, like Gecko) Chrome/128.0.0.0 Safari/537.36" version="24.7.10">
  <diagram name="Page-1" id="_6BbtZnAridV8mcd7BpB">
    <mxGraphModel dx="1164" dy="752" grid="1" gridSize="10" guides="1" tooltips="1" connect="1" arrows="1" fold="1" page="1" pageScale="1" pageWidth="850" pageHeight="1100" math="0" shadow="0">
      <root>
        <mxCell id="0" />
        <mxCell id="1" parent="0" />
        <mxCell id="GMaoftWNbb0csuufRk0r-76" style="edgeStyle=orthogonalEdgeStyle;rounded=0;orthogonalLoop=1;jettySize=auto;html=1;entryX=0;entryY=0.5;entryDx=0;entryDy=0;" parent="1" target="GMaoftWNbb0csuufRk0r-43" edge="1">
          <mxGeometry relative="1" as="geometry">
            <Array as="points">
              <mxPoint x="440" y="350" />
              <mxPoint x="10" y="350" />
              <mxPoint x="10" y="500" />
            </Array>
            <mxPoint x="440" y="300" as="sourcePoint" />
          </mxGeometry>
        </mxCell>
        <mxCell id="qIuazsQ1rnkxGDJd2dbM-7" value="" style="edgeStyle=orthogonalEdgeStyle;rounded=0;orthogonalLoop=1;jettySize=auto;html=1;shape=link;" edge="1" parent="1" source="qIuazsQ1rnkxGDJd2dbM-1" target="qIuazsQ1rnkxGDJd2dbM-6">
          <mxGeometry relative="1" as="geometry" />
        </mxCell>
        <mxCell id="qIuazsQ1rnkxGDJd2dbM-9" value="" style="edgeStyle=orthogonalEdgeStyle;rounded=0;orthogonalLoop=1;jettySize=auto;html=1;shape=link;" edge="1" parent="1" source="qIuazsQ1rnkxGDJd2dbM-1" target="qIuazsQ1rnkxGDJd2dbM-8">
          <mxGeometry relative="1" as="geometry">
            <Array as="points">
              <mxPoint x="450" y="590" />
            </Array>
          </mxGeometry>
        </mxCell>
        <mxCell id="qIuazsQ1rnkxGDJd2dbM-30" style="edgeStyle=orthogonalEdgeStyle;rounded=0;orthogonalLoop=1;jettySize=auto;html=1;exitX=0.5;exitY=0;exitDx=0;exitDy=0;shape=link;" edge="1" parent="1" source="qIuazsQ1rnkxGDJd2dbM-1" target="qIuazsQ1rnkxGDJd2dbM-29">
          <mxGeometry relative="1" as="geometry" />
        </mxCell>
        <mxCell id="qIuazsQ1rnkxGDJd2dbM-32" style="edgeStyle=orthogonalEdgeStyle;rounded=0;orthogonalLoop=1;jettySize=auto;html=1;entryX=0.5;entryY=0;entryDx=0;entryDy=0;shape=link;" edge="1" parent="1" source="qIuazsQ1rnkxGDJd2dbM-1" target="qIuazsQ1rnkxGDJd2dbM-31">
          <mxGeometry relative="1" as="geometry" />
        </mxCell>
        <mxCell id="qIuazsQ1rnkxGDJd2dbM-1" value="&amp;lt;&amp;lt;System&amp;gt;&amp;gt;&lt;div&gt;Digital Library Archival System&lt;/div&gt;" style="rounded=0;whiteSpace=wrap;html=1;" vertex="1" parent="1">
          <mxGeometry x="365" y="330" width="120" height="60" as="geometry" />
        </mxCell>
        <mxCell id="qIuazsQ1rnkxGDJd2dbM-2" value="&amp;lt;&amp;lt;System&amp;gt;&amp;gt;&lt;div&gt;User&lt;/div&gt;" style="rounded=0;whiteSpace=wrap;html=1;" vertex="1" parent="1">
          <mxGeometry x="590" y="100" width="120" height="60" as="geometry" />
        </mxCell>
        <mxCell id="qIuazsQ1rnkxGDJd2dbM-3" style="edgeStyle=orthogonalEdgeStyle;rounded=0;orthogonalLoop=1;jettySize=auto;html=1;entryX=0.75;entryY=0;entryDx=0;entryDy=0;shape=link;" edge="1" parent="1" source="qIuazsQ1rnkxGDJd2dbM-2" target="qIuazsQ1rnkxGDJd2dbM-1">
          <mxGeometry relative="1" as="geometry" />
        </mxCell>
        <mxCell id="qIuazsQ1rnkxGDJd2dbM-6" value="&amp;lt;&amp;lt;System&amp;gt;&amp;gt;&lt;div&gt;Moderation&lt;/div&gt;" style="rounded=0;whiteSpace=wrap;html=1;" vertex="1" parent="1">
          <mxGeometry x="590" y="330" width="120" height="60" as="geometry" />
        </mxCell>
        <mxCell id="qIuazsQ1rnkxGDJd2dbM-8" value="&amp;lt;&amp;lt;System&amp;gt;&amp;gt;&lt;div&gt;Library Database&amp;nbsp;&lt;/div&gt;" style="rounded=0;whiteSpace=wrap;html=1;" vertex="1" parent="1">
          <mxGeometry x="590" y="560" width="120" height="60" as="geometry" />
        </mxCell>
        <mxCell id="qIuazsQ1rnkxGDJd2dbM-11" value="" style="edgeStyle=orthogonalEdgeStyle;rounded=0;orthogonalLoop=1;jettySize=auto;html=1;shape=link;" edge="1" parent="1" source="qIuazsQ1rnkxGDJd2dbM-10" target="qIuazsQ1rnkxGDJd2dbM-1">
          <mxGeometry relative="1" as="geometry" />
        </mxCell>
        <mxCell id="qIuazsQ1rnkxGDJd2dbM-10" value="&amp;lt;&amp;lt;System&amp;gt;&amp;gt;&lt;div&gt;Main Rental and Waitlist&lt;/div&gt;" style="rounded=0;whiteSpace=wrap;html=1;" vertex="1" parent="1">
          <mxGeometry x="140" y="330" width="120" height="60" as="geometry" />
        </mxCell>
        <mxCell id="qIuazsQ1rnkxGDJd2dbM-13" style="edgeStyle=orthogonalEdgeStyle;rounded=0;orthogonalLoop=1;jettySize=auto;html=1;shape=link;entryX=0.25;entryY=0;entryDx=0;entryDy=0;" edge="1" parent="1" source="qIuazsQ1rnkxGDJd2dbM-12" target="qIuazsQ1rnkxGDJd2dbM-1">
          <mxGeometry relative="1" as="geometry">
            <mxPoint x="390" y="320" as="targetPoint" />
          </mxGeometry>
        </mxCell>
        <mxCell id="qIuazsQ1rnkxGDJd2dbM-12" value="&amp;lt;&amp;lt;System&amp;gt;&amp;gt;&lt;div&gt;Security and Encryption&lt;/div&gt;" style="rounded=0;whiteSpace=wrap;html=1;" vertex="1" parent="1">
          <mxGeometry x="140" y="100" width="120" height="60" as="geometry" />
        </mxCell>
        <mxCell id="qIuazsQ1rnkxGDJd2dbM-15" style="edgeStyle=orthogonalEdgeStyle;rounded=0;orthogonalLoop=1;jettySize=auto;html=1;entryX=0.25;entryY=1;entryDx=0;entryDy=0;shape=link;" edge="1" parent="1" source="qIuazsQ1rnkxGDJd2dbM-14" target="qIuazsQ1rnkxGDJd2dbM-1">
          <mxGeometry relative="1" as="geometry" />
        </mxCell>
        <mxCell id="qIuazsQ1rnkxGDJd2dbM-14" value="&amp;lt;&amp;lt;System&amp;gt;&amp;gt;&lt;div&gt;Upload and Request&lt;/div&gt;" style="rounded=0;whiteSpace=wrap;html=1;" vertex="1" parent="1">
          <mxGeometry x="140" y="560" width="120" height="60" as="geometry" />
        </mxCell>
        <mxCell id="qIuazsQ1rnkxGDJd2dbM-16" value="&amp;lt;&amp;lt;System&amp;gt;&amp;gt;&lt;div&gt;Personalized feed&lt;/div&gt;" style="rounded=0;whiteSpace=wrap;html=1;" vertex="1" parent="1">
          <mxGeometry x="590" y="220" width="120" height="60" as="geometry" />
        </mxCell>
        <mxCell id="qIuazsQ1rnkxGDJd2dbM-20" style="edgeStyle=orthogonalEdgeStyle;rounded=0;orthogonalLoop=1;jettySize=auto;html=1;exitX=0;exitY=0.5;exitDx=0;exitDy=0;entryX=0.867;entryY=0.033;entryDx=0;entryDy=0;entryPerimeter=0;shape=link;" edge="1" parent="1" source="qIuazsQ1rnkxGDJd2dbM-16" target="qIuazsQ1rnkxGDJd2dbM-1">
          <mxGeometry relative="1" as="geometry" />
        </mxCell>
        <mxCell id="qIuazsQ1rnkxGDJd2dbM-21" value="&amp;lt;&amp;lt;System&amp;gt;&amp;gt;&lt;div&gt;Support&lt;/div&gt;" style="rounded=0;whiteSpace=wrap;html=1;" vertex="1" parent="1">
          <mxGeometry x="140" y="220" width="120" height="60" as="geometry" />
        </mxCell>
        <mxCell id="qIuazsQ1rnkxGDJd2dbM-22" style="edgeStyle=orthogonalEdgeStyle;rounded=0;orthogonalLoop=1;jettySize=auto;html=1;exitX=1;exitY=0.5;exitDx=0;exitDy=0;entryX=0.125;entryY=0.05;entryDx=0;entryDy=0;entryPerimeter=0;shape=link;" edge="1" parent="1" source="qIuazsQ1rnkxGDJd2dbM-21" target="qIuazsQ1rnkxGDJd2dbM-1">
          <mxGeometry relative="1" as="geometry" />
        </mxCell>
        <mxCell id="qIuazsQ1rnkxGDJd2dbM-23" value="&amp;lt;&amp;lt;System&amp;gt;&amp;gt;&lt;div&gt;Stats and Analytics&lt;/div&gt;" style="rounded=0;whiteSpace=wrap;html=1;" vertex="1" parent="1">
          <mxGeometry x="140" y="450" width="120" height="60" as="geometry" />
        </mxCell>
        <mxCell id="qIuazsQ1rnkxGDJd2dbM-24" style="edgeStyle=orthogonalEdgeStyle;rounded=0;orthogonalLoop=1;jettySize=auto;html=1;exitX=1;exitY=0.5;exitDx=0;exitDy=0;entryX=0.133;entryY=0.95;entryDx=0;entryDy=0;entryPerimeter=0;shape=link;" edge="1" parent="1" source="qIuazsQ1rnkxGDJd2dbM-23" target="qIuazsQ1rnkxGDJd2dbM-1">
          <mxGeometry relative="1" as="geometry" />
        </mxCell>
        <mxCell id="qIuazsQ1rnkxGDJd2dbM-25" value="&amp;lt;&amp;lt;System&amp;gt;&amp;gt;&lt;div&gt;Content Viewer&lt;/div&gt;" style="rounded=0;whiteSpace=wrap;html=1;" vertex="1" parent="1">
          <mxGeometry x="590" y="450" width="120" height="60" as="geometry" />
        </mxCell>
        <mxCell id="qIuazsQ1rnkxGDJd2dbM-26" style="edgeStyle=orthogonalEdgeStyle;rounded=0;orthogonalLoop=1;jettySize=auto;html=1;exitX=0;exitY=0.5;exitDx=0;exitDy=0;entryX=0.883;entryY=0.967;entryDx=0;entryDy=0;entryPerimeter=0;shape=link;" edge="1" parent="1" source="qIuazsQ1rnkxGDJd2dbM-25" target="qIuazsQ1rnkxGDJd2dbM-1">
          <mxGeometry relative="1" as="geometry" />
        </mxCell>
        <mxCell id="qIuazsQ1rnkxGDJd2dbM-29" value="&amp;lt;&amp;lt;System&amp;gt;&amp;gt;&lt;div&gt;Notification&lt;/div&gt;" style="rounded=0;whiteSpace=wrap;html=1;" vertex="1" parent="1">
          <mxGeometry x="365" y="30" width="120" height="60" as="geometry" />
        </mxCell>
        <mxCell id="qIuazsQ1rnkxGDJd2dbM-31" value="&amp;lt;&amp;lt;System&amp;gt;&amp;gt;&lt;div&gt;Search&lt;/div&gt;" style="rounded=0;whiteSpace=wrap;html=1;" vertex="1" parent="1">
          <mxGeometry x="365" y="630" width="120" height="60" as="geometry" />
        </mxCell>
      </root>
    </mxGraphModel>
  </diagram>
</mxfile>
